<svg width="232" height="200" viewBox="0 0 232 200" fill="none" xmlns="http://www.w3.org/2000/svg">
    <foreignObject width="100%" height="100%">
        <div xmlns="http://www.w3.org/1999/xhtml">
            <style>
                .light { display: block; }
                .dark { display: none; }
                @media (prefers-color-scheme: dark) {
                    .light { display: none; }
                    .dark { display: block; }
                }
            </style>
<svg class="light" width="232" height="200" viewBox="0 0 232 200" fill="none" xmlns="http://www.w3.org/2000/svg">
<path d="M115.708 16.8606C117.1 16.7674 119.971 17.1353 121.209 17.7003C137.429 25.1003 126.338 50.685 122.316 61.0431C124.555 60.7508 127.722 60.2459 129.907 60.1685C136.719 43.4069 162.804 17.0302 182.083 21.1305C200.162 24.9752 189.388 45.1118 180.41 52.3155C174.958 56.6913 170.845 61.2533 164.835 65.1643C172.045 66.9677 180.66 74.3023 184.618 80.4022C200.053 104.195 189.66 131.628 167.976 146.629C165.442 148.221 162.838 149.839 160.125 151.109C156.856 152.639 153.289 153.743 149.795 154.643C128.13 160.224 128.055 143.047 109.657 142.703C101.629 142.554 92.3718 145.163 84.9381 148.197C81.081 149.771 77.2806 151.598 73.5043 153.357C66.2537 156.734 58.5685 160.256 50.5119 157.323C47.1249 156.089 44.7643 153.162 43.294 149.97C39.4433 141.611 42.5499 131.861 45.5588 123.687C46.673 120.661 48.1576 117.886 49.6761 115.053C55.7547 103.607 63.7158 93.2659 73.2262 84.4623C76.6612 81.2641 79.4998 78.6222 83.8028 76.627C83.3929 69.6314 84.6521 58.4115 86.7325 51.7136C90.878 38.3654 99.8349 18.2309 115.708 16.8606Z" fill="black"/>
<mask id="mask0_4_66" style="mask-type:alpha" maskUnits="userSpaceOnUse" x="44" y="20" width="145" height="136">
<path d="M107.332 23.3862C112.712 19.6821 121.869 18.6485 124.544 24.6075C128.249 32.8633 125.073 43.4516 122.494 51.6231C121.675 54.2164 117.242 63.2953 117.016 66.8816C116.97 67.6179 117.64 68.1922 118.255 67.7848C119.342 67.0644 120.356 65.089 120.69 64.2626C122.872 63.892 124.348 63.6896 126.544 63.4137C126.934 63.3685 130.969 62.9403 131.059 62.89C133.312 61.6324 134.412 58.0163 135.781 55.8985C144.595 42.2582 156.95 29.3045 172.893 24.4689C177.931 22.9109 187.116 23.6092 187.979 29.8496C189.879 43.5817 174.79 52.3646 164.78 61.5C163.491 62.6773 161.552 64.3406 159.722 66.0356C157.815 67.8026 159.007 69.4181 161.297 68.1861C161.961 67.8284 162.513 67.5201 162.844 67.3254C168.585 69.4154 173.754 72.8275 177.933 77.2854C185.719 85.448 188.524 94.8525 188.187 105.908C187.762 119.892 182.069 129.684 172.218 139.077C169.273 141.861 164.918 144.672 161.187 146.743C153.121 151.218 140.787 155.047 132.221 149.902C128.982 147.957 126.178 144.192 122.211 142.392C112.454 137.964 101.03 139.833 91.0303 142.518C86.3057 144.125 82.2639 145.707 77.6422 147.843C69.238 151.728 53.0087 160.996 46.5155 149.32C43.5647 144.014 45.4639 134.106 47.2056 128.765C47.7139 127.206 48.9857 124.583 49.743 122.878C55.9985 108.721 65.1672 96.042 76.6515 85.6662C79.6422 82.9249 82.5058 80.1816 86.202 78.4422C86.3849 75.3471 86.6057 69.4216 87.1028 66.5362C89.246 54.0954 92.4906 42.0877 99.701 31.5455C102.064 28.0902 104.44 25.3773 107.332 23.3862Z" fill="white"/>
</mask>
<g mask="url(#mask0_4_66)">
<path d="M107.332 23.3862C112.712 19.6821 121.869 18.6485 124.544 24.6075C128.249 32.8633 125.073 43.4516 122.494 51.6231C121.675 54.2164 117.242 63.2953 117.016 66.8816C116.97 67.6179 117.64 68.1922 118.255 67.7848C119.342 67.0644 120.356 65.089 120.69 64.2626C122.872 63.892 124.348 63.6896 126.544 63.4137C126.934 63.3685 130.969 62.9403 131.059 62.89C133.312 61.6324 134.412 58.0163 135.781 55.8985C144.595 42.2582 156.95 29.3045 172.893 24.4689C177.931 22.9109 187.116 23.6092 187.979 29.8496C189.879 43.5817 174.79 52.3646 164.78 61.5C163.491 62.6773 161.552 64.3406 159.722 66.0356C157.815 67.8026 159.007 69.4181 161.297 68.1861C161.961 67.8284 162.513 67.5201 162.844 67.3254C168.585 69.4154 173.754 72.8275 177.933 77.2854C185.719 85.448 188.524 94.8525 188.187 105.908C187.762 119.892 182.069 129.684 172.218 139.077C169.273 141.861 164.918 144.672 161.187 146.743C153.121 151.218 140.787 155.047 132.221 149.902C128.982 147.957 126.178 144.192 122.211 142.392C112.454 137.964 101.03 139.833 91.0303 142.518C86.3057 144.125 82.2639 145.707 77.6422 147.843C69.238 151.728 53.0087 160.996 46.5155 149.32C43.5647 144.014 45.4639 134.106 47.2056 128.765C47.7139 127.206 48.9857 124.583 49.743 122.878C55.9985 108.721 65.1672 96.042 76.6515 85.6662C79.6422 82.9249 82.5058 80.1816 86.202 78.4422C86.3849 75.3471 86.6057 69.4216 87.1028 66.5362C89.246 54.0954 92.4906 42.0877 99.701 31.5455C102.064 28.0902 104.44 25.3773 107.332 23.3862Z" fill="white"/>
<path d="M108.947 26.4879C114.205 22.8718 123.152 21.8598 125.768 27.6812C129.39 35.7414 126.286 46.0789 123.764 54.0568C122.966 56.582 118.655 65.4058 118.413 68.9261C118.362 69.662 119.032 70.2352 119.642 69.8215C120.697 69.1067 121.678 67.1984 122.002 66.397C124.134 66.0351 125.577 65.8375 127.723 65.5682C128.104 65.524 132.048 65.1059 132.136 65.0569C134.338 63.829 135.414 60.2986 136.751 58.231C145.366 44.9138 157.442 32.2669 173.025 27.5459C177.949 26.0247 186.926 26.7065 187.77 32.7991C189.627 46.2059 174.879 54.7807 165.096 63.6998C163.862 64.8242 162.022 66.4026 160.269 68.0199C158.357 69.7829 159.542 71.3882 161.829 70.1526C162.417 69.8354 162.903 69.5635 163.203 69.3872C168.815 71.4277 173.867 74.7589 177.951 79.1112C185.561 87.0805 188.303 96.2623 187.974 107.056C187.558 120.709 181.993 130.269 172.365 139.439C169.486 142.158 165.23 144.901 161.583 146.923C153.7 151.293 141.644 155.031 133.272 150.008C130.106 148.109 127.366 144.433 123.488 142.675C113.951 138.352 102.786 140.177 93.012 142.798C88.3942 144.368 84.4437 145.912 79.9264 147.998C71.712 151.791 55.8495 160.839 49.5029 149.44C46.6188 144.259 48.4752 134.586 50.1774 129.371C50.6743 127.849 51.9174 125.289 52.6576 123.624C58.7718 109.803 67.7333 97.4236 78.958 87.2935C81.8812 84.6172 84.6801 81.9388 88.2928 80.2407C88.4716 77.2189 88.6873 71.4337 89.1732 68.6167C91.268 56.4706 94.4392 44.7473 101.487 34.4548C103.797 31.0809 106.12 28.432 108.947 26.4879Z" fill="#D2FFCE"/>
<path d="M108.947 26.4879C114.205 22.8718 123.152 21.8598 125.768 27.6812C129.39 35.7414 126.286 46.0789 123.764 54.0568C122.966 56.582 118.655 65.4058 118.413 68.9261C118.362 69.662 119.032 70.2352 119.642 69.8215C120.697 69.1067 121.678 67.1984 122.002 66.397C124.134 66.0351 125.577 65.8375 127.723 65.5682C128.104 65.524 132.048 65.1059 132.136 65.0569C134.338 63.829 135.414 60.2986 136.751 58.231C145.366 44.9138 157.442 32.2669 173.025 27.5459C177.949 26.0247 186.926 26.7065 187.77 32.7991C189.627 46.2059 174.879 54.7807 165.096 63.6998C163.862 64.8242 162.022 66.4026 160.269 68.0199C158.357 69.7829 159.542 71.3882 161.829 70.1526C162.417 69.8354 162.903 69.5635 163.203 69.3872C168.815 71.4277 173.867 74.7589 177.951 79.1112C185.561 87.0805 188.303 96.2623 187.974 107.056C187.558 120.709 181.993 130.269 172.365 139.439C169.486 142.158 165.23 144.901 161.583 146.923C153.7 151.293 141.644 155.031 133.272 150.008C130.106 148.109 127.366 144.433 123.488 142.675C113.951 138.352 102.786 140.177 93.012 142.798C88.3942 144.368 84.4437 145.912 79.9264 147.998C71.712 151.791 55.8495 160.839 49.5029 149.44C46.6188 144.259 48.4752 134.586 50.1774 129.371C50.6743 127.849 51.9174 125.289 52.6576 123.624C58.7718 109.803 67.7333 97.4236 78.958 87.2935C81.8812 84.6172 84.6801 81.9388 88.2928 80.2407C88.4716 77.2189 88.6873 71.4337 89.1732 68.6167C91.268 56.4706 94.4392 44.7473 101.487 34.4548C103.797 31.0809 106.12 28.432 108.947 26.4879Z" fill="#EDFDFA"/>
<path d="M116.998 10.8733C121.729 10.907 127.707 12.7809 130.474 18.9456L130.713 19.5002C133.101 25.2429 132.735 31.294 131.759 36.3733C130.762 41.5622 128.872 46.8411 127.692 50.5784L127.693 50.5793C127.399 51.5109 126.883 52.7614 126.41 53.8889C126.841 53.842 127.428 53.7781 127.98 53.717C128.003 53.6759 128.028 53.6339 128.053 53.5891C128.344 53.059 128.594 52.544 128.978 51.7825C129.31 51.1226 129.772 50.2212 130.322 49.3704L131.194 48.0393C140.337 34.2832 153.491 20.561 171.007 15.2483V15.2493C174.586 14.1497 179.336 13.867 183.58 14.9299C187.729 15.9691 193.283 18.9378 194.369 25.637L194.417 25.9592L194.476 26.4153C195.615 35.9589 190.796 43.344 185.566 48.8674C182.889 51.6939 179.869 54.2853 177.051 56.6292C175.091 58.2595 173.27 59.7386 171.572 61.1848C175.671 63.4597 179.406 66.3619 182.636 69.7991L183.063 70.2522C191.939 79.7977 195.058 90.8475 194.685 103.106C194.195 119.215 187.453 130.532 176.703 140.781C176.697 140.788 176.69 140.794 176.684 140.8C173.718 143.605 168.851 147.923 164.341 150.426C160.077 152.792 154.864 155.225 149.431 156.23C143.894 157.253 137.589 156.871 131.993 152.859C130.045 151.462 128.353 150.155 126.861 148.988C125.331 147.791 124.109 146.819 122.925 145.94C120.615 144.225 118.987 143.285 117.224 142.744C113.613 141.637 107.806 141.696 92.9348 145.737C88.481 147.257 84.6985 148.742 80.3694 150.743C78.4186 151.645 76.1218 152.976 72.676 154.76C69.5434 156.382 65.778 158.195 62.012 159.329C58.421 160.411 53.6921 161.238 49.2356 159.532C44.4523 157.702 41.5875 153.642 40.3479 148.521C38.374 144.305 38.298 139.344 38.6243 135.505C38.9977 131.111 40.03 126.804 41.0256 123.75C41.6701 121.774 43.2376 118.511 43.7981 117.251C50.4164 102.273 60.1134 88.8565 72.259 77.8743C74.2975 76.0059 76.8075 73.5977 79.8987 71.5598C80.0617 68.5282 80.3021 64.7282 80.6975 62.4329C82.8963 49.6695 86.3393 36.5682 94.3362 24.8762C96.9312 21.0821 99.8371 17.6548 103.646 15.0325C107.366 12.4706 112.292 10.8398 116.998 10.8733Z" stroke="black" stroke-opacity="0.09" style="mix-blend-mode:plus-darker" stroke-width="13" stroke-linejoin="round"/>
</g>
<path d="M121.74 89.5872C130.924 89.0504 132.979 102.674 129.312 106.038C127.07 106.854 127.074 104.933 127.289 103.394C128.003 98.2964 126.348 90.6578 119.635 93.8067C115.869 96.1346 113.73 98.5406 112.316 102.758C111.837 104.185 111.353 106.125 109.513 106.084C106.964 104.341 110.808 98.094 112.1 96.2365C114.597 92.6434 117.348 90.3721 121.74 89.5872Z" fill="black"/>
<path d="M164.778 90.5198C166.845 90.6251 168.277 90.926 169.872 92.5946C173.34 96.222 174.172 107.5 170.672 107C168.505 106.69 170.433 103.281 168.975 97.6697C168.299 95.0713 166.694 93.1559 162.781 94.6871C157.898 97.3811 157.791 100.171 155.822 105.026C155.344 106.204 154.445 106.842 153.219 106.198C151.614 103.677 155.39 97.1668 157.103 95.1447C159.469 92.3539 161.078 90.956 164.778 90.5198Z" fill="black"/>
<path opacity="0.3" d="M97.8532 175.906C102.242 175.69 131.539 175.509 133.401 178.047C131.749 179.742 114.221 180.356 110.755 180.452C106.171 180.847 78.2009 180.782 74.9588 179.034L74.8629 178.658C76.9022 176.838 93.9376 176.155 97.8532 175.906Z" fill="black"/>
<path d="M56.9799 78.2659L57.4012 78.3712C57.1275 79.1508 54.3481 80.421 53.4645 80.972C51.6665 82.1269 49.7107 83.3262 48.0281 84.6269C42.8712 88.6134 36.0128 94.2365 32.4947 99.7094L32.1899 99.8632L31.8645 99.733C31.8718 99.2557 31.9609 99.0191 32.1911 98.598C37.5123 88.8661 46.6773 81.8404 56.9799 78.2659Z" fill="black"/>
<path d="M43.2596 103.029L43.4629 103.323C43.3043 104.089 39.0498 108.444 38.132 109.639C33.7999 115.277 30.8149 120.373 27.8641 126.764L27.5527 126.334C27.4792 119.326 37.2783 106.236 43.2596 103.029Z" fill="black"/>
</svg>


<svg class="dark" width="232" height="200" viewBox="0 0 232 200" fill="none" xmlns="http://www.w3.org/2000/svg">
<path d="M115.626 16.8606C117.018 16.7674 119.889 17.1353 121.127 17.7003C137.347 25.1003 126.256 50.685 122.234 61.0431C124.473 60.7508 127.64 60.2459 129.825 60.1685C136.637 43.4069 162.722 17.0302 182.001 21.1305C200.08 24.9752 189.306 45.1118 180.328 52.3155C174.875 56.6913 170.763 61.2533 164.753 65.1643C171.963 66.9677 180.578 74.3023 184.536 80.4022C199.971 104.195 189.578 131.628 167.894 146.629C165.36 148.221 162.756 149.839 160.042 151.109C156.774 152.639 153.207 153.743 149.713 154.643C128.048 160.224 127.973 143.047 109.575 142.703C101.547 142.554 92.2897 145.163 84.856 148.197C80.999 149.771 77.1986 151.598 73.4223 153.357C66.1717 156.734 58.4865 160.256 50.4299 157.323C47.0428 156.089 44.6823 153.162 43.2119 149.97C39.3613 141.611 42.4679 131.861 45.4768 123.687C46.591 120.661 48.0755 117.886 49.5941 115.053C55.6727 103.607 63.6337 93.2659 73.1441 84.4623C76.5792 81.2641 79.4178 78.6222 83.7207 76.627C83.3109 69.6314 84.5701 58.4115 86.6504 51.7136C90.796 38.3654 99.7528 18.2309 115.626 16.8606Z" fill="white"/>
<mask id="mask0_4_84" style="mask-type:alpha" maskUnits="userSpaceOnUse" x="44" y="20" width="145" height="136">
<path d="M107.25 23.3862C112.63 19.6821 121.787 18.6485 124.461 24.6075C128.167 32.8633 124.991 43.4516 122.412 51.6231C121.593 54.2164 117.16 63.2953 116.934 66.8816C116.888 67.6179 117.558 68.1922 118.173 67.7848C119.26 67.0644 120.274 65.089 120.608 64.2626C122.79 63.892 124.266 63.6896 126.462 63.4137C126.852 63.3685 130.887 62.9403 130.977 62.89C133.23 61.6324 134.33 58.0163 135.699 55.8985C144.513 42.2582 156.868 29.3045 172.811 24.4689C177.849 22.9109 187.034 23.6092 187.897 29.8496C189.797 43.5817 174.708 52.3646 164.698 61.5C163.409 62.6773 161.47 64.3406 159.64 66.0356C157.733 67.8026 158.925 69.4181 161.214 68.1861C161.879 67.8284 162.431 67.5201 162.762 67.3254C168.503 69.4154 173.672 72.8275 177.851 77.2854C185.637 85.448 188.442 94.8525 188.105 105.908C187.68 119.892 181.987 129.684 172.136 139.077C169.191 141.861 164.836 144.672 161.105 146.743C153.039 151.218 140.705 155.047 132.139 149.902C128.9 147.957 126.096 144.192 122.129 142.392C112.372 137.964 100.948 139.833 90.9483 142.518C86.2237 144.125 82.1819 145.707 77.5602 147.843C69.1559 151.728 52.9267 160.996 46.4334 149.32C43.4826 144.014 45.3819 134.106 47.1235 128.765C47.6318 127.206 48.9037 124.583 49.661 122.878C55.9165 108.721 65.0852 96.042 76.5694 85.6662C79.5602 82.9249 82.4238 80.1816 86.12 78.4422C86.3029 75.3471 86.5237 69.4216 87.0207 66.5362C89.164 54.0954 92.4085 42.0877 99.6189 31.5455C101.982 28.0902 104.358 25.3773 107.25 23.3862Z" fill="white"/>
</mask>
<g mask="url(#mask0_4_84)">
<path d="M107.25 23.3862C112.63 19.6821 121.787 18.6485 124.461 24.6075C128.167 32.8633 124.991 43.4516 122.412 51.6231C121.593 54.2164 117.16 63.2953 116.934 66.8816C116.888 67.6179 117.558 68.1922 118.173 67.7848C119.26 67.0644 120.274 65.089 120.608 64.2626C122.79 63.892 124.266 63.6896 126.462 63.4137C126.852 63.3685 130.887 62.9403 130.977 62.89C133.23 61.6324 134.33 58.0163 135.699 55.8985C144.513 42.2582 156.868 29.3045 172.811 24.4689C177.849 22.9109 187.034 23.6092 187.897 29.8496C189.797 43.5817 174.708 52.3646 164.698 61.5C163.409 62.6773 161.47 64.3406 159.64 66.0356C157.733 67.8026 158.925 69.4181 161.214 68.1861C161.879 67.8284 162.431 67.5201 162.762 67.3254C168.503 69.4154 173.672 72.8275 177.851 77.2854C185.637 85.448 188.442 94.8525 188.105 105.908C187.68 119.892 181.987 129.684 172.136 139.077C169.191 141.861 164.836 144.672 161.105 146.743C153.039 151.218 140.705 155.047 132.139 149.902C128.9 147.957 126.096 144.192 122.129 142.392C112.372 137.964 100.948 139.833 90.9483 142.518C86.2237 144.125 82.1819 145.707 77.5602 147.843C69.1559 151.728 52.9267 160.996 46.4334 149.32C43.4826 144.014 45.3819 134.106 47.1235 128.765C47.6318 127.206 48.9037 124.583 49.661 122.878C55.9165 108.721 65.0852 96.042 76.5694 85.6662C79.5602 82.9249 82.4238 80.1816 86.12 78.4422C86.3029 75.3471 86.5237 69.4216 87.0207 66.5362C89.164 54.0954 92.4085 42.0877 99.6189 31.5455C101.982 28.0902 104.358 25.3773 107.25 23.3862Z" fill="#5E8679"/>
<path d="M107.25 23.3862C112.63 19.6821 121.787 18.6485 124.461 24.6075C128.167 32.8633 124.991 43.4516 122.412 51.6231C121.593 54.2164 117.16 63.2953 116.934 66.8816C116.888 67.6179 117.558 68.1922 118.173 67.7848C119.26 67.0644 120.274 65.089 120.608 64.2626C122.79 63.892 124.266 63.6896 126.462 63.4137C126.852 63.3685 130.887 62.9403 130.977 62.89C133.23 61.6324 134.33 58.0163 135.699 55.8985C144.513 42.2582 156.868 29.3045 172.811 24.4689C177.849 22.9109 187.034 23.6092 187.897 29.8496C189.797 43.5817 174.708 52.3646 164.698 61.5C163.409 62.6773 161.47 64.3406 159.64 66.0356C157.733 67.8026 158.925 69.4181 161.214 68.1861C161.879 67.8284 162.431 67.5201 162.762 67.3254C168.503 69.4154 173.672 72.8275 177.851 77.2854C185.637 85.448 188.442 94.8525 188.105 105.908C187.68 119.892 181.987 129.684 172.136 139.077C169.191 141.861 164.836 144.672 161.105 146.743C153.039 151.218 140.705 155.047 132.139 149.902C128.9 147.957 126.096 144.192 122.129 142.392C112.372 137.964 100.948 139.833 90.9483 142.518C86.2237 144.125 82.1819 145.707 77.5602 147.843C69.1559 151.728 52.9267 160.996 46.4334 149.32C43.4826 144.014 45.3819 134.106 47.1235 128.765C47.6318 127.206 48.9037 124.583 49.661 122.878C55.9165 108.721 65.0852 96.042 76.5694 85.6662C79.5602 82.9249 82.4238 80.1816 86.12 78.4422C86.3029 75.3471 86.5237 69.4216 87.0207 66.5362C89.164 54.0954 92.4085 42.0877 99.6189 31.5455C101.982 28.0902 104.358 25.3773 107.25 23.3862Z" fill="#3C4746"/>
<path d="M118.312 14.0469C122.968 14.0798 128.877 15.924 131.615 22.0195L131.859 22.5859C134.275 28.444 133.52 34.5597 132.31 39.4639C131.139 44.2069 128.888 49.9115 127.903 53.0273C127.595 54.0043 127.042 55.3324 126.559 56.4824C126.537 56.5342 126.514 56.5857 126.492 56.6377C126.527 56.5818 126.56 56.5249 126.596 56.4697C134.875 43.6667 147.71 22.7824 170.531 16.7412C174.655 15.5221 179.763 16.0259 183.875 17.5488C187.884 19.0339 193.414 22.4949 194.33 29.1084C195.719 39.1425 189.851 46.4185 184.233 51.5029C181.364 54.0998 178.144 56.4975 175.267 58.6445C173.465 59.9888 171.799 61.2333 170.286 62.4424C174.87 64.7703 179.029 67.8802 182.569 71.6445H182.57C191.599 81.1025 194.76 92.0906 194.389 104.287C193.908 120.072 187.293 131.161 176.767 141.19C176.76 141.197 176.754 141.203 176.747 141.209C173.847 143.949 169.079 148.178 164.653 150.633C160.48 152.947 155.37 155.332 150.037 156.317C144.601 157.321 138.395 156.948 132.884 153C130.977 151.634 129.32 150.355 127.861 149.215C126.365 148.045 125.174 147.098 124.019 146.241C121.766 144.57 120.19 143.663 118.49 143.143C115.004 142.075 109.365 142.119 94.8291 146.065C90.4837 147.548 86.7938 148.996 82.5703 150.947C80.667 151.826 78.4331 153.121 75.0566 154.868C71.9931 156.453 68.3026 158.229 64.6084 159.341C61.0891 160.4 56.4291 161.218 52.0283 159.535C47.3016 157.727 44.4754 153.722 43.2529 148.689C41.3128 144.537 41.2424 139.665 41.5615 135.913C41.9278 131.608 42.9398 127.388 43.916 124.396C44.551 122.45 46.0969 119.235 46.6357 118.023C53.113 103.38 62.6021 90.2628 74.4854 79.5254C76.4599 77.7169 78.9013 75.3773 81.9072 73.3867C82.0667 70.4364 82.3011 66.7602 82.6855 64.5303C84.836 52.0565 88.2063 39.2346 96.041 27.7881C98.5831 24.0741 101.436 20.7104 105.18 18.1348C108.839 15.6174 113.681 14.0142 118.312 14.0469ZM125.23 59.6445C125.274 59.6427 125.317 59.6405 125.359 59.6387C125.394 59.4355 125.435 59.2346 125.483 59.0361C125.399 59.2374 125.315 59.4404 125.23 59.6445Z" stroke="black" stroke-opacity="0.1" style="mix-blend-mode:plus-darker" stroke-width="13" stroke-linejoin="round"/>
</g>
<path d="M121.658 89.5872C130.842 89.0504 132.897 102.674 129.23 106.038C126.988 106.854 126.992 104.933 127.207 103.394C127.921 98.2964 126.266 90.6578 119.553 93.8067C115.787 96.1346 113.648 98.5406 112.233 102.758C111.755 104.185 111.271 106.125 109.431 106.084C106.882 104.341 110.726 98.094 112.018 96.2365C114.515 92.6434 117.266 90.3721 121.658 89.5872Z" fill="white"/>
<path d="M164.696 90.5198C166.763 90.6251 168.195 90.926 169.79 92.5946C173.258 96.222 174.09 107.5 170.59 107C168.423 106.69 170.351 103.281 168.892 97.6697C168.217 95.0713 166.612 93.1559 162.699 94.6871C157.816 97.3811 157.709 100.171 155.74 105.026C155.262 106.204 154.363 106.842 153.137 106.198C151.532 103.677 155.308 97.1668 157.021 95.1447C159.387 92.3539 160.996 90.956 164.696 90.5198Z" fill="white"/>
<path opacity="0.3" d="M97.7712 175.906C102.16 175.69 131.457 175.509 133.319 178.047C131.667 179.742 114.139 180.356 110.673 180.452C106.089 180.847 78.1188 180.782 74.8768 179.034L74.7809 178.658C76.8202 176.838 93.8556 176.155 97.7712 175.906Z" fill="white"/>
<path d="M56.8979 78.2659L57.3192 78.3712C57.0454 79.1508 54.2661 80.421 53.3825 80.972C51.5844 82.1269 49.6287 83.3262 47.9461 84.6269C42.7891 88.6134 35.9308 94.2365 32.4127 99.7094L32.1079 99.8632L31.7825 99.733C31.7898 99.2557 31.8789 99.0191 32.109 98.598C37.4303 88.8661 46.5953 81.8404 56.8979 78.2659Z" fill="white"/>
<path d="M43.1775 103.029L43.3809 103.323C43.2223 104.089 38.9677 108.444 38.05 109.639C33.7179 115.277 30.7329 120.373 27.782 126.764L27.4706 126.334C27.3972 119.326 37.1963 106.236 43.1775 103.029Z" fill="white"/>
</svg>

        </div>
    </foreignObject>
</svg>
